<svg width="433" height="405" viewBox="0 0 433 405" fill="none" xmlns="http://www.w3.org/2000/svg">
<path d="M421.726 278.773H315.677C310.94 278.773 307.086 282.649 307.086 287.409V365.523C307.086 365.743 307.005 365.96 306.856 366.125L274.497 402.615H421.726C426.465 402.615 430.318 398.739 430.318 393.977V287.409C430.318 282.649 426.465 278.773 421.726 278.773ZM412.631 374.475H348.124C347.623 374.475 347.22 374.068 347.22 373.563C347.22 373.063 347.623 372.656 348.124 372.656H412.631C413.127 372.656 413.534 373.062 413.534 373.563C413.534 374.068 413.128 374.475 412.631 374.475ZM412.631 358.038H324.119C323.619 358.038 323.212 357.632 323.212 357.129C323.212 356.628 323.619 356.22 324.119 356.22H412.631C413.127 356.22 413.534 356.628 413.534 357.129C413.534 357.631 413.128 358.038 412.631 358.038ZM412.631 341.602H324.119C323.619 341.602 323.212 341.193 323.212 340.693C323.212 340.192 323.619 339.787 324.119 339.787H412.631C413.127 339.787 413.534 340.191 413.534 340.693C413.534 341.192 413.128 341.602 412.631 341.602ZM412.631 325.169H324.119C323.619 325.169 323.212 324.76 323.212 324.26C323.212 323.755 323.619 323.348 324.119 323.348H412.631C413.127 323.348 413.534 323.755 413.534 324.26C413.534 324.76 413.128 325.169 412.631 325.169ZM412.631 308.73H324.119C323.619 308.73 323.212 308.323 323.212 307.821C323.212 307.318 323.619 306.913 324.119 306.913H412.631C413.127 306.913 413.534 307.318 413.534 307.821C413.534 308.324 413.128 308.73 412.631 308.73Z" fill="#E65100"/>
<path d="M421.726 276.954H315.677C309.941 276.954 305.275 281.644 305.275 287.409V365.175L271.8 402.917C271.562 403.184 271.503 403.567 271.65 403.894C271.796 404.221 272.117 404.434 272.475 404.434H421.727C427.463 404.434 432.128 399.741 432.128 393.977V287.409C432.128 281.645 427.463 276.954 421.726 276.954ZM430.318 393.977C430.318 398.739 426.465 402.615 421.726 402.615H274.497L306.856 366.125C307.005 365.96 307.086 365.744 307.086 365.523V287.409C307.086 282.649 310.94 278.773 315.677 278.773H421.726C426.465 278.773 430.318 282.649 430.318 287.409V393.977Z" fill="#231F20"/>
<path d="M412.631 306.913H324.119C323.619 306.913 323.212 307.318 323.212 307.821C323.212 308.324 323.619 308.73 324.119 308.73H412.631C413.127 308.73 413.534 308.323 413.534 307.821C413.534 307.318 413.128 306.913 412.631 306.913Z" fill="#231F20"/>
<path d="M412.631 323.348H324.119C323.619 323.348 323.212 323.754 323.212 324.259C323.212 324.76 323.619 325.168 324.119 325.168H412.631C413.127 325.168 413.534 324.76 413.534 324.259C413.534 323.754 413.128 323.348 412.631 323.348Z" fill="#231F20"/>
<path d="M412.631 339.787H324.119C323.619 339.787 323.212 340.191 323.212 340.693C323.212 341.193 323.619 341.602 324.119 341.602H412.631C413.127 341.602 413.534 341.193 413.534 340.693C413.534 340.191 413.128 339.787 412.631 339.787Z" fill="#231F20"/>
<path d="M412.631 356.22H324.119C323.619 356.22 323.212 356.628 323.212 357.129C323.212 357.631 323.619 358.038 324.119 358.038H412.631C413.127 358.038 413.534 357.631 413.534 357.129C413.534 356.628 413.128 356.22 412.631 356.22Z" fill="#231F20"/>
<path d="M412.631 372.656H348.124C347.623 372.656 347.22 373.062 347.22 373.563C347.22 374.068 347.623 374.475 348.124 374.475H412.631C413.127 374.475 413.534 374.068 413.534 373.563C413.534 373.063 413.128 372.656 412.631 372.656Z" fill="#231F20"/>
<path d="M141.813 36.4092V74.2165H210.931H246.118H281.309H351.693V36.4092C351.693 17.168 336.406 1.55937 317.373 1.08321V1.04675H246.118H235.917H194.656H106.617C126.061 1.04675 141.813 16.8703 141.813 36.4092Z" fill="#1565C0"/>
<path d="M352.735 75.2633H140.772V36.4098C140.772 17.4879 125.451 2.09352 106.617 2.09352V0.000549316H318.415V0.0762263C337.741 1.08156 352.735 16.8521 352.735 36.4098V75.2633H352.735ZM142.855 73.1703H350.652V36.4098C350.652 17.6553 336.022 2.59619 317.347 2.12998L316.332 2.09352H118.733C132.775 7.11303 142.855 20.6006 142.855 36.4098V73.1703Z" fill="black"/>
<path d="M280.674 374.953C281.073 372.825 281.309 370.62 281.309 368.359V251.032V74.2165H141.813V36.4092C141.813 16.8698 126.061 1.0462 106.617 1.0462C89.4321 1.0462 75.144 13.4339 72.063 29.8093C71.6645 31.9388 71.4303 34.1422 71.4303 36.4086V251.031V330.552H210.923V368.359C210.923 387.888 226.674 403.722 246.12 403.722C263.3 403.723 277.594 391.332 280.674 374.953Z" fill="#1565C0"/>
<path d="M246.12 404.769C226.137 404.769 209.882 388.437 209.882 368.36V331.599H70.3892V36.4092C70.3892 34.2102 70.6068 31.925 71.04 29.6155C74.27 12.4551 89.2315 0 106.617 0C126.598 0 142.855 16.3323 142.855 36.4092V73.1697H282.35V368.359C282.35 370.557 282.13 372.84 281.699 375.147C278.469 392.312 263.506 404.769 246.12 404.769ZM72.4719 329.506H211.965V368.36C211.965 387.282 227.286 402.677 246.12 402.677C262.508 402.677 276.609 390.936 279.651 374.76C280.06 372.581 280.268 370.426 280.268 368.36V75.2633H140.772V36.4098C140.772 17.4879 125.451 2.09353 106.617 2.09353C90.232 2.09353 76.1313 13.8317 73.086 30.0043C72.677 32.1851 72.4719 34.3416 72.4719 36.4098V329.506Z" fill="black"/>
<path d="M129.34 94.2216H97.0657V127.851H129.34V94.2216Z" fill="#E65100"/>
<path d="M130.381 128.898H96.024V93.1754H130.381V128.898ZM98.1074 126.805H128.299V95.2683H98.1074V126.805Z" fill="black"/>
<path d="M249.181 93.1754H148.316V95.2683H249.181V93.1754Z" fill="black"/>
<path d="M249.181 109.988H148.316V112.081H249.181V109.988Z" fill="black"/>
<path d="M189.559 126.805H148.316V128.898H189.559V126.805Z" fill="black"/>
<path d="M129.34 149.179H97.0657V182.815H129.34V149.179Z" fill="#E65100"/>
<path d="M130.381 183.861H96.024V148.133H130.381V183.861ZM98.1074 181.768H128.299V150.225H98.1074V181.768Z" fill="black"/>
<path d="M249.181 148.133H148.316V150.225H249.181V148.133Z" fill="black"/>
<path d="M249.181 164.949H148.316V167.042H249.181V164.949Z" fill="black"/>
<path d="M129.34 204.136H97.0657V237.77H129.34V204.136Z" fill="#E65100"/>
<path d="M130.381 238.816H96.024V203.09H130.381V238.816ZM98.1074 236.724H128.299V205.183H98.1074V236.724Z" fill="black"/>
<path d="M249.181 203.09H148.316V205.183H249.181V203.09Z" fill="black"/>
<path d="M249.181 219.909H148.316V222.002H249.181V219.909Z" fill="black"/>
<path d="M233.939 236.724H148.316V238.816H233.939V236.724Z" fill="black"/>
<path d="M129.34 259.096H97.0657V292.729H129.34V259.096Z" fill="#E65100"/>
<path d="M130.381 293.775H96.024V258.049H130.381V293.775ZM98.1074 291.682H128.299V260.141H98.1074V291.682Z" fill="black"/>
<path d="M249.181 258.049H148.316V260.141H249.181V258.049Z" fill="black"/>
<path d="M249.181 274.862H148.316V276.955H249.181V274.862Z" fill="black"/>
<path d="M114.917 120.86L105.881 111.775L107.353 110.295L114.917 117.9L135.325 97.384L136.8 98.8633L114.917 120.86Z" fill="black"/>
<path d="M114.917 174.312L105.881 165.238L107.353 163.758L114.917 171.353L135.327 150.849L136.8 152.328L114.917 174.312Z" fill="black"/>
<path d="M345.76 243.399H180.697V253.479H345.76V243.399Z" fill="#003C8F"/>
<path d="M346.802 254.525H179.656V242.352H346.802V254.525V254.525ZM181.739 252.432H344.719V244.445H181.739V252.432Z" fill="black"/>
<path d="M345.76 222.061H180.697V232.141H345.76V222.061Z" fill="#003C8F"/>
<path d="M346.802 233.188H179.656V221.014H346.802V233.188V233.188ZM181.739 231.095H344.719V223.107H181.739V231.095Z" fill="black"/>
<path d="M345.76 232.141H180.697V243.399H345.76V232.141Z" fill="white"/>
<path d="M346.802 244.445H179.656V231.094H346.802V244.445V244.445ZM181.739 242.352H344.719V233.187H181.739V242.352Z" fill="black"/>
<path d="M180.264 222.061L156.049 232.544L154.556 242.346L180.264 253.479V222.061Z" fill="#FFEFC9"/>
<path d="M181.305 255.069L153.405 242.988L155.105 231.812L181.305 220.471V255.069ZM155.707 241.704L179.223 251.889V223.651L156.99 233.276L155.707 241.704Z" fill="black"/>
<path d="M143.986 237.768L154.556 242.346L156.049 232.544L143.986 237.768Z" fill="#E6E7E8"/>
<path d="M155.379 243.842L141.355 237.768L157.36 230.835L155.379 243.842ZM146.615 237.768L153.73 240.85L154.735 234.253L146.615 237.768Z" fill="black"/>
<path d="M355.583 218.039H346.194V257.501H355.583V218.039Z" fill="white"/>
<path d="M356.624 258.548H345.153V216.992H356.624V258.548ZM347.235 256.455H354.541V219.085H347.235V256.455Z" fill="black"/>
<path d="M367.721 226.431H356.016V248.463H367.721V226.431Z" fill="#00B593"/>
<path d="M368.762 249.51H354.974V225.384H368.762V249.51ZM357.057 247.417H366.679V227.477H357.057V247.417Z" fill="black"/>
<path d="M210.923 368.36V330.553H141.803H106.621H71.4303H1.04112V368.36C1.04112 387.593 16.3319 403.208 35.3611 403.686V403.723H106.62H116.817H158.082H246.119C226.674 403.723 210.923 387.889 210.923 368.36Z" fill="#1565C0"/>
<path d="M246.12 404.769H34.32V404.693C14.9939 403.686 0 387.915 0 368.36V329.506H211.964V368.36C211.964 387.282 227.285 402.677 246.12 402.677V404.769ZM36.4028 402.677H234.004C219.962 397.656 209.882 384.169 209.882 368.36V331.599H2.08278V368.36C2.08278 387.112 16.7123 402.172 35.3875 402.64L36.4028 402.677Z" fill="black"/>
</svg>
